<mxfile host="app.diagrams.net" modified="2020-06-16T10:40:47.379Z" agent="5.0 (Windows NT 10.0; Win64; x64) AppleWebKit/537.36 (KHTML, like Gecko) Chrome/79.0.3945.130 Safari/537.36" etag="f2JXQvZp-vh5GtuTP0WC" version="13.2.4" type="github" pages="4">
  <diagram id="DjW4IaGBEBSciwxu0ygg" name="Page-1">
    <mxGraphModel dx="1668" dy="482" grid="0" gridSize="10" guides="1" tooltips="1" connect="1" arrows="0" fold="1" page="0" pageScale="1" pageWidth="850" pageHeight="1100" math="0" shadow="0">
      <root>
        <mxCell id="0" />
        <mxCell id="1" parent="0" />
        <mxCell id="U1uFOQf1wDZZcTMdiayz-1" value="&lt;br&gt;&lt;b&gt;&lt;br&gt;&lt;br&gt;Working Directory (Eclipse/ other IDE)&lt;/b&gt;" style="shape=note;whiteSpace=wrap;html=1;backgroundOutline=1;darkOpacity=0.05;fillColor=#1ba1e2;strokeColor=#006EAF;fontColor=#ffffff;" parent="1" vertex="1">
          <mxGeometry x="20" y="290" width="90" height="100" as="geometry" />
        </mxCell>
        <mxCell id="U1uFOQf1wDZZcTMdiayz-3" value="&lt;b&gt;Staging area&lt;/b&gt;" style="shape=document;whiteSpace=wrap;html=1;boundedLbl=1;fillColor=#fa6800;strokeColor=#C73500;fontColor=#ffffff;" parent="1" vertex="1">
          <mxGeometry x="240" y="310" width="120" height="80" as="geometry" />
        </mxCell>
        <mxCell id="U1uFOQf1wDZZcTMdiayz-4" value="&lt;b&gt;Local Repository(GIT Client- GIT Bash,GIT GUI,GIT CMI&lt;/b&gt;" style="shape=cylinder;whiteSpace=wrap;html=1;boundedLbl=1;backgroundOutline=1;fillColor=#d5e8d4;strokeColor=#82b366;gradientColor=#97d077;" parent="1" vertex="1">
          <mxGeometry x="460" y="290" width="170" height="120" as="geometry" />
        </mxCell>
        <mxCell id="U1uFOQf1wDZZcTMdiayz-5" value="Remote Repository&lt;br&gt;(GitHub Enterprise)" style="shape=cylinder;whiteSpace=wrap;html=1;boundedLbl=1;backgroundOutline=1;fontStyle=1;fillColor=#ffff88;strokeColor=#36393d;" parent="1" vertex="1">
          <mxGeometry x="730" y="280" width="150" height="120" as="geometry" />
        </mxCell>
        <mxCell id="U1uFOQf1wDZZcTMdiayz-7" value="" style="endArrow=classic;html=1;exitX=0.144;exitY=0.02;exitDx=0;exitDy=0;exitPerimeter=0;entryX=0.441;entryY=0.017;entryDx=0;entryDy=0;entryPerimeter=0;" parent="1" source="U1uFOQf1wDZZcTMdiayz-1" target="U1uFOQf1wDZZcTMdiayz-4" edge="1">
          <mxGeometry width="50" height="50" relative="1" as="geometry">
            <mxPoint x="60" y="290" as="sourcePoint" />
            <mxPoint x="450" y="230" as="targetPoint" />
            <Array as="points">
              <mxPoint x="33" y="190" />
              <mxPoint x="290" y="190" />
              <mxPoint x="537" y="190" />
            </Array>
          </mxGeometry>
        </mxCell>
        <mxCell id="U1uFOQf1wDZZcTMdiayz-11" value="" style="endArrow=none;html=1;" parent="1" edge="1">
          <mxGeometry width="50" height="50" relative="1" as="geometry">
            <mxPoint x="-430" y="280" as="sourcePoint" />
            <mxPoint x="-430" y="230" as="targetPoint" />
          </mxGeometry>
        </mxCell>
        <mxCell id="U1uFOQf1wDZZcTMdiayz-13" value="" style="endArrow=classic;html=1;entryX=0.5;entryY=0;entryDx=0;entryDy=0;" parent="1" target="U1uFOQf1wDZZcTMdiayz-3" edge="1">
          <mxGeometry width="50" height="50" relative="1" as="geometry">
            <mxPoint x="60" y="287" as="sourcePoint" />
            <mxPoint x="410" y="260" as="targetPoint" />
            <Array as="points">
              <mxPoint x="60" y="240" />
              <mxPoint x="300" y="240" />
            </Array>
          </mxGeometry>
        </mxCell>
        <mxCell id="U1uFOQf1wDZZcTMdiayz-15" value="" style="endArrow=classic;html=1;entryX=1;entryY=0.58;entryDx=0;entryDy=0;entryPerimeter=0;" parent="1" source="U1uFOQf1wDZZcTMdiayz-3" target="U1uFOQf1wDZZcTMdiayz-1" edge="1">
          <mxGeometry width="50" height="50" relative="1" as="geometry">
            <mxPoint x="400" y="280" as="sourcePoint" />
            <mxPoint x="130" y="347" as="targetPoint" />
          </mxGeometry>
        </mxCell>
        <mxCell id="U1uFOQf1wDZZcTMdiayz-16" value="" style="endArrow=classic;html=1;exitX=1;exitY=0.5;exitDx=0;exitDy=0;" parent="1" source="U1uFOQf1wDZZcTMdiayz-3" edge="1">
          <mxGeometry width="50" height="50" relative="1" as="geometry">
            <mxPoint x="435" y="340" as="sourcePoint" />
            <mxPoint x="456" y="350" as="targetPoint" />
            <Array as="points" />
          </mxGeometry>
        </mxCell>
        <mxCell id="U1uFOQf1wDZZcTMdiayz-17" value="" style="endArrow=classic;html=1;" parent="1" edge="1">
          <mxGeometry width="50" height="50" relative="1" as="geometry">
            <mxPoint x="630" y="327" as="sourcePoint" />
            <mxPoint x="730" y="327" as="targetPoint" />
          </mxGeometry>
        </mxCell>
        <mxCell id="U1uFOQf1wDZZcTMdiayz-18" value="" style="endArrow=classic;html=1;" parent="1" edge="1">
          <mxGeometry width="50" height="50" relative="1" as="geometry">
            <mxPoint x="730" y="359" as="sourcePoint" />
            <mxPoint x="630" y="359" as="targetPoint" />
          </mxGeometry>
        </mxCell>
        <mxCell id="U1uFOQf1wDZZcTMdiayz-19" value="" style="endArrow=classic;html=1;exitX=0.5;exitY=1;exitDx=0;exitDy=0;" parent="1" source="U1uFOQf1wDZZcTMdiayz-5" edge="1">
          <mxGeometry width="50" height="50" relative="1" as="geometry">
            <mxPoint x="680" y="240" as="sourcePoint" />
            <mxPoint x="60" y="394" as="targetPoint" />
            <Array as="points">
              <mxPoint x="805" y="440" />
              <mxPoint x="775" y="440" />
              <mxPoint x="710" y="440" />
              <mxPoint x="520" y="440" />
              <mxPoint x="70" y="440" />
              <mxPoint x="60" y="440" />
            </Array>
          </mxGeometry>
        </mxCell>
        <mxCell id="U1uFOQf1wDZZcTMdiayz-20" value="PUSH" style="text;html=1;strokeColor=none;fillColor=none;align=center;verticalAlign=middle;whiteSpace=wrap;rounded=0;fontStyle=1" parent="1" vertex="1">
          <mxGeometry x="661" y="300" width="40" height="20" as="geometry" />
        </mxCell>
        <mxCell id="U1uFOQf1wDZZcTMdiayz-22" value="FETCH/PULL" style="text;html=1;strokeColor=none;fillColor=none;align=center;verticalAlign=middle;whiteSpace=wrap;rounded=0;fontStyle=1" parent="1" vertex="1">
          <mxGeometry x="662" y="360" width="40" height="20" as="geometry" />
        </mxCell>
        <mxCell id="U1uFOQf1wDZZcTMdiayz-25" value="COMMIT" style="text;html=1;strokeColor=none;fillColor=none;align=center;verticalAlign=middle;whiteSpace=wrap;rounded=0;fontStyle=1" parent="1" vertex="1">
          <mxGeometry x="380" y="360" width="70" height="20" as="geometry" />
        </mxCell>
        <mxCell id="U1uFOQf1wDZZcTMdiayz-27" value="&lt;b&gt;ADD&lt;/b&gt;" style="text;html=1;strokeColor=none;fillColor=none;align=center;verticalAlign=middle;whiteSpace=wrap;rounded=0;" parent="1" vertex="1">
          <mxGeometry x="160" y="220" width="40" height="20" as="geometry" />
        </mxCell>
        <mxCell id="U1uFOQf1wDZZcTMdiayz-28" value="COMMIT -a" style="text;html=1;align=center;verticalAlign=middle;whiteSpace=wrap;rounded=0;fontStyle=1" parent="1" vertex="1">
          <mxGeometry x="240" y="150" width="80" height="20" as="geometry" />
        </mxCell>
        <mxCell id="U1uFOQf1wDZZcTMdiayz-35" value="Plug in&amp;nbsp;" style="ellipse;whiteSpace=wrap;html=1;fontStyle=1;fillColor=#dae8fc;strokeColor=#6c8ebf;" parent="1" vertex="1">
          <mxGeometry x="20" y="300" width="50" height="20" as="geometry" />
        </mxCell>
        <mxCell id="U1uFOQf1wDZZcTMdiayz-52" value="CHECK OUT" style="text;html=1;strokeColor=none;fillColor=none;align=center;verticalAlign=middle;whiteSpace=wrap;rounded=0;fontStyle=1" parent="1" vertex="1">
          <mxGeometry x="140" y="350" width="70" height="30" as="geometry" />
        </mxCell>
        <mxCell id="PKUPkipwP-LRDPgWTSrc-1" value="CLONE/PULL" style="text;html=1;strokeColor=none;fillColor=none;align=center;verticalAlign=middle;whiteSpace=wrap;rounded=0;fontStyle=1" parent="1" vertex="1">
          <mxGeometry x="380" y="450" width="80" height="20" as="geometry" />
        </mxCell>
      </root>
    </mxGraphModel>
  </diagram>
  <diagram name="Copy of Page-1" id="Wws5pv2Z5EJqPfZCufil">
    <mxGraphModel dx="1268" dy="482" grid="0" gridSize="10" guides="1" tooltips="1" connect="1" arrows="0" fold="1" page="0" pageScale="1" pageWidth="850" pageHeight="1100" math="0" shadow="0">
      <root>
        <mxCell id="UrYe-P0nPYFkCGpH_gkC-0" />
        <mxCell id="UrYe-P0nPYFkCGpH_gkC-1" parent="UrYe-P0nPYFkCGpH_gkC-0" />
        <mxCell id="UrYe-P0nPYFkCGpH_gkC-2" value="&lt;br&gt;&lt;b&gt;&lt;br&gt;&lt;br&gt;Working Directory (Eclipse/ other IDE)&lt;/b&gt;" style="shape=note;whiteSpace=wrap;html=1;backgroundOutline=1;darkOpacity=0.05;fillColor=#1ba1e2;strokeColor=#006EAF;fontColor=#ffffff;" parent="UrYe-P0nPYFkCGpH_gkC-1" vertex="1">
          <mxGeometry x="-122" y="290" width="90" height="100" as="geometry" />
        </mxCell>
        <mxCell id="UrYe-P0nPYFkCGpH_gkC-3" value="&lt;b&gt;Staging area&lt;/b&gt;" style="shape=document;whiteSpace=wrap;html=1;boundedLbl=1;fillColor=#fa6800;strokeColor=#C73500;fontColor=#ffffff;" parent="UrYe-P0nPYFkCGpH_gkC-1" vertex="1">
          <mxGeometry x="98" y="310" width="120" height="80" as="geometry" />
        </mxCell>
        <mxCell id="UrYe-P0nPYFkCGpH_gkC-4" value="&lt;b&gt;Local Repository(GIT Client- GIT Bash,GIT GUI,GIT CMI&lt;/b&gt;" style="shape=cylinder;whiteSpace=wrap;html=1;boundedLbl=1;backgroundOutline=1;fillColor=#d5e8d4;strokeColor=#82b366;gradientColor=#97d077;" parent="UrYe-P0nPYFkCGpH_gkC-1" vertex="1">
          <mxGeometry x="318" y="290" width="170" height="120" as="geometry" />
        </mxCell>
        <mxCell id="UrYe-P0nPYFkCGpH_gkC-6" value="" style="endArrow=classic;html=1;exitX=0.144;exitY=0.02;exitDx=0;exitDy=0;exitPerimeter=0;entryX=0.441;entryY=0.017;entryDx=0;entryDy=0;entryPerimeter=0;" parent="UrYe-P0nPYFkCGpH_gkC-1" source="UrYe-P0nPYFkCGpH_gkC-2" target="UrYe-P0nPYFkCGpH_gkC-4" edge="1">
          <mxGeometry width="50" height="50" relative="1" as="geometry">
            <mxPoint x="-82" y="290" as="sourcePoint" />
            <mxPoint x="308" y="230" as="targetPoint" />
            <Array as="points">
              <mxPoint x="-109" y="190" />
              <mxPoint x="148" y="190" />
              <mxPoint x="395" y="190" />
            </Array>
          </mxGeometry>
        </mxCell>
        <mxCell id="UrYe-P0nPYFkCGpH_gkC-8" value="" style="endArrow=classic;html=1;entryX=0.5;entryY=0;entryDx=0;entryDy=0;" parent="UrYe-P0nPYFkCGpH_gkC-1" target="UrYe-P0nPYFkCGpH_gkC-3" edge="1">
          <mxGeometry width="50" height="50" relative="1" as="geometry">
            <mxPoint x="-82" y="287" as="sourcePoint" />
            <mxPoint x="268" y="260" as="targetPoint" />
            <Array as="points">
              <mxPoint x="-82" y="240" />
              <mxPoint x="158" y="240" />
            </Array>
          </mxGeometry>
        </mxCell>
        <mxCell id="UrYe-P0nPYFkCGpH_gkC-9" value="" style="endArrow=classic;html=1;entryX=1;entryY=0.58;entryDx=0;entryDy=0;entryPerimeter=0;" parent="UrYe-P0nPYFkCGpH_gkC-1" source="UrYe-P0nPYFkCGpH_gkC-3" target="UrYe-P0nPYFkCGpH_gkC-2" edge="1">
          <mxGeometry width="50" height="50" relative="1" as="geometry">
            <mxPoint x="258" y="280" as="sourcePoint" />
            <mxPoint x="-12" y="347" as="targetPoint" />
          </mxGeometry>
        </mxCell>
        <mxCell id="UrYe-P0nPYFkCGpH_gkC-10" value="" style="endArrow=classic;html=1;exitX=1;exitY=0.5;exitDx=0;exitDy=0;" parent="UrYe-P0nPYFkCGpH_gkC-1" source="UrYe-P0nPYFkCGpH_gkC-3" edge="1">
          <mxGeometry width="50" height="50" relative="1" as="geometry">
            <mxPoint x="293" y="340" as="sourcePoint" />
            <mxPoint x="314" y="350" as="targetPoint" />
            <Array as="points" />
          </mxGeometry>
        </mxCell>
        <mxCell id="UrYe-P0nPYFkCGpH_gkC-11" value="" style="endArrow=classic;html=1;" parent="UrYe-P0nPYFkCGpH_gkC-1" edge="1">
          <mxGeometry width="50" height="50" relative="1" as="geometry">
            <mxPoint x="488" y="327" as="sourcePoint" />
            <mxPoint x="578" y="327" as="targetPoint" />
          </mxGeometry>
        </mxCell>
        <mxCell id="UrYe-P0nPYFkCGpH_gkC-12" value="" style="endArrow=classic;html=1;" parent="UrYe-P0nPYFkCGpH_gkC-1" edge="1">
          <mxGeometry width="50" height="50" relative="1" as="geometry">
            <mxPoint x="577" y="359" as="sourcePoint" />
            <mxPoint x="488" y="359" as="targetPoint" />
          </mxGeometry>
        </mxCell>
        <mxCell id="UrYe-P0nPYFkCGpH_gkC-13" value="" style="endArrow=classic;html=1;" parent="UrYe-P0nPYFkCGpH_gkC-1" edge="1">
          <mxGeometry width="50" height="50" relative="1" as="geometry">
            <mxPoint x="574" y="440" as="sourcePoint" />
            <mxPoint x="-82" y="394" as="targetPoint" />
            <Array as="points">
              <mxPoint x="378" y="440" />
              <mxPoint x="-72" y="440" />
              <mxPoint x="-82" y="440" />
            </Array>
          </mxGeometry>
        </mxCell>
        <mxCell id="UrYe-P0nPYFkCGpH_gkC-14" value="PUSH" style="text;html=1;strokeColor=none;fillColor=none;align=center;verticalAlign=middle;whiteSpace=wrap;rounded=0;fontStyle=1" parent="UrYe-P0nPYFkCGpH_gkC-1" vertex="1">
          <mxGeometry x="519" y="300" width="40" height="20" as="geometry" />
        </mxCell>
        <mxCell id="UrYe-P0nPYFkCGpH_gkC-15" value="FETCH/PULL" style="text;html=1;strokeColor=none;fillColor=none;align=center;verticalAlign=middle;whiteSpace=wrap;rounded=0;fontStyle=1" parent="UrYe-P0nPYFkCGpH_gkC-1" vertex="1">
          <mxGeometry x="520" y="360" width="40" height="20" as="geometry" />
        </mxCell>
        <mxCell id="UrYe-P0nPYFkCGpH_gkC-16" value="COMMIT" style="text;html=1;strokeColor=none;fillColor=none;align=center;verticalAlign=middle;whiteSpace=wrap;rounded=0;fontStyle=1" parent="UrYe-P0nPYFkCGpH_gkC-1" vertex="1">
          <mxGeometry x="238" y="360" width="70" height="20" as="geometry" />
        </mxCell>
        <mxCell id="UrYe-P0nPYFkCGpH_gkC-17" value="&lt;b&gt;ADD&lt;/b&gt;" style="text;html=1;strokeColor=none;fillColor=none;align=center;verticalAlign=middle;whiteSpace=wrap;rounded=0;" parent="UrYe-P0nPYFkCGpH_gkC-1" vertex="1">
          <mxGeometry x="18" y="220" width="40" height="20" as="geometry" />
        </mxCell>
        <mxCell id="UrYe-P0nPYFkCGpH_gkC-18" value="COMMIT -a" style="text;html=1;align=center;verticalAlign=middle;whiteSpace=wrap;rounded=0;fontStyle=1" parent="UrYe-P0nPYFkCGpH_gkC-1" vertex="1">
          <mxGeometry x="98" y="150" width="80" height="20" as="geometry" />
        </mxCell>
        <mxCell id="UrYe-P0nPYFkCGpH_gkC-19" value="Plug in&amp;nbsp;" style="ellipse;whiteSpace=wrap;html=1;fontStyle=1;fillColor=#dae8fc;strokeColor=#6c8ebf;" parent="UrYe-P0nPYFkCGpH_gkC-1" vertex="1">
          <mxGeometry x="-122" y="300" width="50" height="20" as="geometry" />
        </mxCell>
        <mxCell id="UrYe-P0nPYFkCGpH_gkC-20" value="CHECK OUT" style="text;html=1;strokeColor=none;fillColor=none;align=center;verticalAlign=middle;whiteSpace=wrap;rounded=0;fontStyle=1" parent="UrYe-P0nPYFkCGpH_gkC-1" vertex="1">
          <mxGeometry x="-2" y="350" width="70" height="30" as="geometry" />
        </mxCell>
        <mxCell id="UrYe-P0nPYFkCGpH_gkC-21" value="CLONE/PULL" style="text;html=1;strokeColor=none;fillColor=none;align=center;verticalAlign=middle;whiteSpace=wrap;rounded=0;fontStyle=1" parent="UrYe-P0nPYFkCGpH_gkC-1" vertex="1">
          <mxGeometry x="238" y="450" width="80" height="20" as="geometry" />
        </mxCell>
        <mxCell id="4dTIq32EVNOwcL1WDupa-1" value="G" style="shape=ext;double=1;rounded=1;whiteSpace=wrap;html=1;gradientColor=#7ea6e0;fillColor=#dae8fc;strokeColor=#6c8ebf;" parent="UrYe-P0nPYFkCGpH_gkC-1" vertex="1">
          <mxGeometry x="592.5" y="197" width="597" height="310" as="geometry" />
        </mxCell>
        <mxCell id="4dTIq32EVNOwcL1WDupa-4" value="" style="shape=ext;double=1;rounded=1;whiteSpace=wrap;html=1;gradientColor=#97d077;fillColor=#d5e8d4;strokeColor=#82b366;" parent="UrYe-P0nPYFkCGpH_gkC-1" vertex="1">
          <mxGeometry x="623" y="288" width="527" height="181" as="geometry" />
        </mxCell>
        <mxCell id="4dTIq32EVNOwcL1WDupa-8" value="Active" style="shape=ext;rounded=1;html=1;whiteSpace=wrap;dashed=1;dashPattern=1 4;shadow=1;fillColor=#f8cecc;strokeColor=#b85450;fontStyle=1;gradientColor=#ea6b66;" parent="UrYe-P0nPYFkCGpH_gkC-1" vertex="1">
          <mxGeometry x="638" y="255" width="196" height="114" as="geometry" />
        </mxCell>
        <mxCell id="4dTIq32EVNOwcL1WDupa-6" value="Root&amp;nbsp;Volume" style="verticalAlign=top;align=left;spacingTop=8;spacingLeft=2;spacingRight=12;shape=cube;size=10;direction=south;fontStyle=1;html=1;shadow=1;fillColor=#fa6800;strokeColor=#C73500;fontColor=#ffffff;" parent="UrYe-P0nPYFkCGpH_gkC-1" vertex="1">
          <mxGeometry x="646" y="323" width="77" height="42" as="geometry" />
        </mxCell>
        <mxCell id="4dTIq32EVNOwcL1WDupa-10" value="Data Volume" style="verticalAlign=top;align=left;spacingTop=8;spacingLeft=2;spacingRight=12;shape=cube;size=10;direction=south;fontStyle=1;html=1;shadow=1;fillColor=#fa6800;strokeColor=#C73500;fontColor=#ffffff;" parent="UrYe-P0nPYFkCGpH_gkC-1" vertex="1">
          <mxGeometry x="754" y="321" width="76" height="42" as="geometry" />
        </mxCell>
        <mxCell id="4dTIq32EVNOwcL1WDupa-11" value="Passive" style="shape=ext;rounded=1;html=1;whiteSpace=wrap;dashed=1;dashPattern=1 4;shadow=1;fillColor=#f8cecc;strokeColor=#b85450;fontStyle=1;gradientColor=#ea6b66;" parent="UrYe-P0nPYFkCGpH_gkC-1" vertex="1">
          <mxGeometry x="936" y="255" width="196" height="114" as="geometry" />
        </mxCell>
        <mxCell id="4dTIq32EVNOwcL1WDupa-12" value="Root&amp;nbsp;Volume" style="verticalAlign=top;align=left;spacingTop=8;spacingLeft=2;spacingRight=12;shape=cube;size=10;direction=south;fontStyle=1;html=1;shadow=1;fillColor=#fa6800;strokeColor=#C73500;fontColor=#ffffff;" parent="UrYe-P0nPYFkCGpH_gkC-1" vertex="1">
          <mxGeometry x="944" y="323" width="77" height="42" as="geometry" />
        </mxCell>
        <mxCell id="4dTIq32EVNOwcL1WDupa-13" value="Data Volume" style="verticalAlign=top;align=left;spacingTop=8;spacingLeft=2;spacingRight=12;shape=cube;size=10;direction=south;fontStyle=1;html=1;shadow=1;fillColor=#fa6800;strokeColor=#C73500;fontColor=#ffffff;" parent="UrYe-P0nPYFkCGpH_gkC-1" vertex="1">
          <mxGeometry x="1052" y="321" width="76" height="42" as="geometry" />
        </mxCell>
        <mxCell id="4dTIq32EVNOwcL1WDupa-16" value="" style="shape=flexArrow;endArrow=classic;startArrow=classic;html=1;" parent="UrYe-P0nPYFkCGpH_gkC-1" source="4dTIq32EVNOwcL1WDupa-8" edge="1">
          <mxGeometry width="50" height="50" relative="1" as="geometry">
            <mxPoint x="802" y="336" as="sourcePoint" />
            <mxPoint x="936" y="311" as="targetPoint" />
            <Array as="points">
              <mxPoint x="926" y="312" />
            </Array>
          </mxGeometry>
        </mxCell>
        <mxCell id="4dTIq32EVNOwcL1WDupa-18" value="GitHub Appliance" style="text;html=1;strokeColor=none;fillColor=none;align=center;verticalAlign=middle;whiteSpace=wrap;rounded=0;shadow=1;fontStyle=1" parent="UrYe-P0nPYFkCGpH_gkC-1" vertex="1">
          <mxGeometry x="660" y="261" width="159" height="19" as="geometry" />
        </mxCell>
        <mxCell id="4dTIq32EVNOwcL1WDupa-19" value="GitHub Appliance" style="text;html=1;strokeColor=none;fillColor=none;align=center;verticalAlign=middle;whiteSpace=wrap;rounded=0;shadow=1;fontStyle=1" parent="UrYe-P0nPYFkCGpH_gkC-1" vertex="1">
          <mxGeometry x="944" y="261" width="159" height="19" as="geometry" />
        </mxCell>
        <mxCell id="4dTIq32EVNOwcL1WDupa-20" value="Active" style="shape=ext;rounded=1;html=1;whiteSpace=wrap;dashed=1;dashPattern=1 4;shadow=1;fillColor=#f8cecc;strokeColor=#b85450;fontStyle=1;gradientColor=#ea6b66;" parent="UrYe-P0nPYFkCGpH_gkC-1" vertex="1">
          <mxGeometry x="638" y="387" width="196" height="114" as="geometry" />
        </mxCell>
        <mxCell id="4dTIq32EVNOwcL1WDupa-21" value="Root&amp;nbsp;Volume" style="verticalAlign=top;align=left;spacingTop=8;spacingLeft=2;spacingRight=12;shape=cube;size=10;direction=south;fontStyle=1;html=1;shadow=1;fillColor=#fa6800;strokeColor=#C73500;fontColor=#ffffff;" parent="UrYe-P0nPYFkCGpH_gkC-1" vertex="1">
          <mxGeometry x="646" y="455" width="77" height="42" as="geometry" />
        </mxCell>
        <mxCell id="4dTIq32EVNOwcL1WDupa-22" value="Data Volume" style="verticalAlign=top;align=left;spacingTop=8;spacingLeft=2;spacingRight=12;shape=cube;size=10;direction=south;fontStyle=1;html=1;shadow=1;fillColor=#fa6800;strokeColor=#C73500;fontColor=#ffffff;" parent="UrYe-P0nPYFkCGpH_gkC-1" vertex="1">
          <mxGeometry x="754" y="453" width="76" height="42" as="geometry" />
        </mxCell>
        <mxCell id="4dTIq32EVNOwcL1WDupa-23" value="GitHub Backup Utility" style="text;html=1;strokeColor=none;fillColor=none;align=center;verticalAlign=middle;whiteSpace=wrap;rounded=0;shadow=1;fontStyle=1" parent="UrYe-P0nPYFkCGpH_gkC-1" vertex="1">
          <mxGeometry x="649.5" y="404" width="173" height="20" as="geometry" />
        </mxCell>
        <mxCell id="4dTIq32EVNOwcL1WDupa-24" value="" style="shape=flexArrow;endArrow=classic;startArrow=classic;html=1;width=8;endSize=5.33;startWidth=16;startSize=5.33;" parent="UrYe-P0nPYFkCGpH_gkC-1" edge="1">
          <mxGeometry width="50" height="50" relative="1" as="geometry">
            <mxPoint x="741" y="401" as="sourcePoint" />
            <mxPoint x="741" y="354" as="targetPoint" />
            <Array as="points">
              <mxPoint x="741" y="379" />
            </Array>
          </mxGeometry>
        </mxCell>
        <mxCell id="4dTIq32EVNOwcL1WDupa-28" value="" style="shape=image;verticalLabelPosition=bottom;labelBackgroundColor=#ffffff;verticalAlign=top;aspect=fixed;imageAspect=0;image=data:image/png,iVBORw0KGgoAAAANSUhEUgAAAKUAAAB6CAYAAADeQ5MgAAAPS0lEQVR4Ae3cP64cxxHAYd5AcCAHshzIkAM5kCAfQM7kSM6YCc6Y8gY8AWNegCFTXoARc2YEmPEAjJgQILDG9+h6ag539/XMVs/0zE4Dg9k/Mz3dVb+uqq7u3XuHvewS6EwC9zprz96cXQKHHcodgu4ksEOZoJIPHz4c3r17d3jz5s3h9evXh5cvXx5evHhx9PCda1zrHvfu5XMJ7FB+Lo+qd4B6/vz54fHjx4cHDx4c/vv774f79+8f/v3rr4d//fLL4Z8//3z46ccfb45//PDDwRHvfec6h3vcqw51qfPt27dVbdjyRTuUZ7T78ePHG2vGsj19+vTwn99+O9y7d+/wp6++Ovzlm28Of//++xvgSuhK+AA4POJ75wDW+W/ffXdTp7o9A6yeGRZVW66l7FAe0TS3yv2yXiwaSP789dc3EA0ha/UeqJ7p2QaDtmiTtm297FAWGn716tXh0aNHN26VFfzrt9/OCuIpwAHKMjtz+QBlvbdarh5KlkcsxyKyTOGSTwGy9OfA1EZtZUFZz/fv32+Kz6uFsoSRi6TspYEb+3xt1nbW08Daimu/Sihj0tKLex4L4/B6cOoLOJ89e7Z6q3k1UJq9yhFK2WwFxlNwCkXEx2udsV8FlHJ/Dx8+vHF1a3TTQ/jueh9u3YRojXnPzUPJnbEcrONdytza92bsMRlak0/fLJRmpBLQFCNRvTXgavvDapqp8xRrceebhDJiR6sktcrb+nUGZ8SavVvNzUH55MmT2zXnrYM2tn/ym+7pfYa+GSi5JqsxXNU1u+u7QCUbMjJ4ey2bgFLSWMxE2HcpZf/+0yYRsjKIe1wNWj2UhCppfI2z60sHmDjTtrneyqqhlIMD5D6h+XKLXC2wBjMwe7KYq4VyB3I6iENgw2L2sna+SihNanaXnQclSAPMHlz56qAEpEnNHkPmQgnMmPwsDeaqoASk9dwdyHwgw6WzmNJFZL1UWRWUtpyZ1Ox5yHZQkq0ku/2ZS5XVQGn7vw2tU4G0BkzYDq/VM7WusCo9nfVFv4b9nNJGdZH1UhOfVUBJOIQ7FSIgSntIFju8NlFSnziKIqcor4d7tD0WDfRJvB39tCFlat/cZ618iVRR91D6sT4hA2sqBEZ9KVx1SinZuCEkIHzXTFXg1HZdch95aDMQrWXriz6VsaDB7JqpzxEqLRFfdg+lH0YJvqcKNqzkufgIsJRq76HfXfcKJ8uuP9rI2ttdXg62Y3004Kb2x/OA6Tlzlq6hNNIpYKrbBrL7xwTtFMAFUuRY66yd7ot73T88fOe6sX1Sj3t5jTE/r+UJyGDqoI7+3AV/JrRdQ0kBl6Z/jPQxSiRcLpCF5hpPKZSytM33XKTDe5bJfSwZuMsjYlm/E2L94z51uPcYqD5znfiQNR9bDLJTfagF1f1z7irqFkoKOKakWkG6DjgAEWtNKaxDWBqWCuABIfjkTFlhivcMlj0O9x474ntn97hXHeoCKwA9w7M802sx41RL5RnqvUSWce/YwT1F5u7pEkoKYFUoZQyEw2vdz9pOVWgIlWJZPID6b5/WhfI9yzPBe0lxP1kaoEP5jHlvkGjPHP8S1yWUXGekOcYIbngtQYJyDkFeAk7Lew1IMrh0gJMteU4JIcb2r0souZtLRzYhitPmjIXGCn+O6yOlBqjhoB37Hthi29alOyjFV+KqsQI7dv0O5adJm3g1A0oyppvW1rIrKM16TSAisD4G2pjPdigPN6EL950FJQ/W2lp2BaVYMsNtB7gUsceUeTFlyJXRkDVoVbqBUuxjdpc1oglQDKTOS2ffrYQ/R71m35esgQeI5TkGe6v2dwOlNIiOZ7ludbG6l+QpWwl9znoz8pQlkKEjk9FW6bFuoIwk9VAAl7wHuFHdSnhzwjX1WRkrOsd0IKk/Zvl2TPu7gJLrzkoDDQVIeIC/1mLmfcmGlqE84314oXJXUpaMu4CS685KA4XQ4iwJf81QytNmLESEPMsznQkPsksXUBrN0jdlhzNesxBm3y1Gc7YiWtVnkpc9gQzdtPJCXUB56YaBEFJ5DvdyzTPvAN0MPDP/G3ImY3tQs8viUMasOzqadeZaWubSshXRuj6rMNkhUmRKsl344lDalmXEZcGoHqEAl7WXzyUgPZaxMaPUFd1Z9Mgsi0OZtYMlBGX0OrJHb6bQl6pLaiw7dpdyMyfILItCmbXXL4AMK0lI1zy5OQVI5o6hkHmLVbNFoTRyWwTgrXexnFL6Gj6X8M504TGhzPRMi0IJnswcGrdtNrjPuE8PD96JjGKSEhZv6lk9wMycVC4KpVEr1zVVIMP7Wm8UOK3qdX1jEpg5uaTDzMnOolBabchcApPyyBTOulCrb60VrkwPpa7MP/dfDEoTkeyVBlByT3s5L4HsZV0z+szJ5WJQmgmKbTLdCCj3crcEyD4zkW7i5BeT6s0oi2nRZASQmQG3EbuXOglkQkmPEvObgDJbMNJLe6mTgDgw0yCwlllZj0UtZTaURute6iQAoiwoZUHocvVQmpDsUNYB1OIq6bMdyoFkrebsUA6EMuPbTPe9GUuZDWWM+hn1uupHMQghs+EixJT3m3DfLaA0+vdSJ4FML7UZS2kBv4Vg6lRy3Vdl5yk3A2X2RCdbMFvGtpVBWP3sWwdaWEphwV7OS6DFTyM2EVO2gNJulVY/kD+v5nV9m70hIyZMq1/R0QEuNzrk9aVHi63568KtrrUZ/+xb6mozy4ygtAKTuSFDXa3/pq5O7f1eFXLPNAZWh+z4yvoJymLLjDqQ+b+JYXWtf2duze8Xr2kts0M8+3f2m9m6RqTZm3yBadTuceVpYMWTwpzS/V76Wiy/iU2+xJb9cwjCzR61p9W7vm9MLrO9E5lv6ucQUhOZP4cgILES97S78C8HjXRZ9u4g8nZs5odjhNTiJ7ZyZtf8T2tf4vjpEz9ZsBR7qbsu74+Zd6YRWGyiQ0xWdbLTE2EtxU17+UMCLfLCZM3yCgmycpRavCiUGmD06lg5+jJei3N2a/kHlOQs3s6QbVlHi9zw4lCa7GTmKkuBiXX8cu/ai9i9pYzVn1kWh1IsUoKU+ZoFltTluq616LsFhRbeyKCnr+yfNS8OJVhaTHYC7kgRXSuU4r0Wbpt8Y5KTLdsuoMzeIBBAxvkaZ+NWzMSR2TuxQqbO6m6xUNEFlFx4S+ERIGsB/qz12WzrkFmfmXCric0QymzXTQ5dQAmU7H/LKIXntfgn0heZAPRYlzhaXyPmG8oi4736pfNaDPIuoKTYFkuOx4QveSyG3dqsHBxWVYCYvbZ9TI7ZS4vl4O4GSqs7Y3evGK3cMiWMsQruE6TbEJK5ElEKds7XBli461apnxJMz+DZWsmuGyiN9DGbBVg87oMyuCtCE5cCrhTgqdcgVgfhgnONaSNQ6L/BbA/BmIF5Si41n7dImJeDuBsoNUoStkaw4Ds2Sn0GbIKttRieR8jqBLk2CN4zl81KgV/y2sDRR//BaYN0DMIamdXANuaalr+F6gpKCqvZjc7CHUtF2NNHYdyZhPHY/BwrS9EsD7jVB1IgtAjo7wIUhJSvTzIHPAIAtbF20I0BreZaMjJ4W5buoAQBoZ8TUFiGIZjujc2mFApwAJ+r69h3YT1jWx0XTxFA5eo9t0UqBPzgi5DEwDIpA6B+ACL6fqzdc3xGNy2tJNi7g1KjwHRXbBgWg+KG8SBLSbk+B9NddZ1Tpuc4gOGgFHW3KoAMS+h5S0NYyobnYa1bly6hZPFq0xoExd2WKZ5IjbBmrE9WDlSbWrsuCs9qbwnUpa9jYGZu5j0Fd5dQmmQYkbVgsoTABGCUMg4Uk90VEtQoTW6utevSfgMso701faq9xuAXvswRW3cJJcUYkQRW677CvZZC477FgCwmyMdOfEqFuZdrLeuPAZB99gwA1A7Ksp0tXtPBcNBn97msr1soNRJQrFOtoE0GKDMKGMEKJoByi1PjS/UIK+YqrHtMtGr73+q61nH0UKZdQwkkggZErcCH8HC34XK5RfWMBVOdJl9leDAUZPZ7bWWdaj1FrXzGXkdWMgBz5m27hpKiuXGus1Y5XB5XDeiyeA9OYBGy62phZ7HUOYfrjjZrr0lVbRvHwlZzPZl7fjmJjPa1PHcPJRC48THxFZc/dLXehxsy6tUJTp8FoJQQimAh1OM7aadhTrSlUqJuochYq14DW+01+t4y/RX9HJ67h1KDWY0xaRLCZNnKEiBGct13Yk6xG+VH/SwDWN3vWlZiaHXLelu+FgsvBWUMxjnddshyFVAGQCxXrRtnAUF3qrCc4AsLyCKDzz2hCGdgLmEttJs1XwJKAxOUIYdTMmz1+WqgJABWjcBqwKTMc3EgC8gtlxY1VlPCmopnw2IsYS2XgJJ8ufc5kuSnoF4VlDpBUbX5RmAGYMcEwCqWsIEemKEQlsLk6JzFPVZv1mdLQEm252SW1bdz9awOSp0BTs1GCxbVdeGizwmix+/mhlJ45JlLl1VCSWjcbm1yWXxJ2KVVXFrwNc+fE0qyLBceatrX6prVQgmwMWByS/J+XPRaylxQBpBLTWyG+lgtlDpCiGPAFGNGyseMWiJdHWbexw7fOVw352pOKGkOKIdLs/HsJc+rhjIEB8zayY+ZZcSa3DpQzcK5rvJQp5QRpbluibRQSyjJQGahF5cdunTeBJSsWe3kZ7iaQTmRl6OkOMKquv6uWXwp0MzXLaE02NTPQ/RWNgFlCJU1Y9WANoTvkvdbgtIAJKOeMxKbghKcJjJ217B4l4BY3gvKJdw36+/ZZVsueU0mQpLhvoAY1L2cNwclwUp4ixPl3S5RYty7FJSZ7pt1FCcvMWEbC/smoSSEiDOBGUtnAdnY85qh1PdIivcYPx4DdrNQRmctGbKaAvupseZSUF7ivvVVn+Vm594PGbKfet48lARj7Tpc4ZRYE5Tun7tMhVIyPAbS2laxyPgqoAyYxJosx1iXvgYoI7Wlb3KPa4gdQy/D81VBGZ03+4yfGtRYzt6h1AdQmsjEDqfo6xrPVwklRZkIgZMizUzPwdkrlFaxwjLqy1omMncNlKuFMgQDThOBgJOizVhjUhQThiU2ctjXWE7QwkVro4HETWu7PmypXD2UpTJNCiTJuXYJ+EglmXAsVQwWKSxt0SZtA+vWQCzlu0NZSuP/rylcbMY69hCjcc3Rlq246CNiv/1oh/JWFPuLXiSwQ9mLJvZ23Epgh/JWFPuLXiSwQ9mLJvZ23Ergf+SQLEN5dczAAAAAAElFTkSuQmCC;" parent="UrYe-P0nPYFkCGpH_gkC-1" vertex="1">
          <mxGeometry x="978" y="431" width="47.64" height="34.74" as="geometry" />
        </mxCell>
        <mxCell id="4dTIq32EVNOwcL1WDupa-33" value="" style="shape=singleArrow;direction=south;whiteSpace=wrap;html=1;shadow=1;fontSize=17;gradientColor=#ffd966;fillColor=#fff2cc;strokeColor=#d6b656;" parent="UrYe-P0nPYFkCGpH_gkC-1" vertex="1">
          <mxGeometry x="859" y="136" width="25" height="72" as="geometry" />
        </mxCell>
        <mxCell id="4dTIq32EVNOwcL1WDupa-34" value="Incoming Traffic" style="text;html=1;strokeColor=none;fillColor=none;align=center;verticalAlign=middle;whiteSpace=wrap;rounded=0;shadow=1;fontSize=12;fontStyle=1" parent="UrYe-P0nPYFkCGpH_gkC-1" vertex="1">
          <mxGeometry x="788" y="119" width="192" height="15" as="geometry" />
        </mxCell>
        <mxCell id="4dTIq32EVNOwcL1WDupa-41" value="Load Balancer" style="rounded=1;whiteSpace=wrap;html=1;shadow=1;fontSize=12;fillColor=#f5f5f5;fontStyle=1;strokeColor=#666666;gradientColor=#b3b3b3;" parent="UrYe-P0nPYFkCGpH_gkC-1" vertex="1">
          <mxGeometry x="825" y="210" width="94" height="20" as="geometry" />
        </mxCell>
        <mxCell id="4dTIq32EVNOwcL1WDupa-44" value="" style="html=1;shape=mxgraph.flowchart.annotation_2;align=left;labelPosition=right;shadow=1;fontSize=12;direction=south;" parent="UrYe-P0nPYFkCGpH_gkC-1" vertex="1">
          <mxGeometry x="735.5" y="227" width="278" height="26" as="geometry" />
        </mxCell>
        <mxCell id="warLp08JULh1DBOCaOgB-0" value="&lt;h1 style=&quot;font-size: 9px&quot;&gt;&lt;font style=&quot;font-size: 9px&quot;&gt;GitHub Enterprise&lt;/font&gt;&lt;/h1&gt;&lt;div style=&quot;font-size: 9px&quot;&gt;&lt;ul class=&quot;i8Z77e&quot; style=&quot;margin: 0px ; padding: 0px ; border: 0px ; color: rgb(34 , 34 , 34) ; font-family: &amp;#34;arial&amp;#34; , sans-serif&quot;&gt;&lt;li class=&quot;TrT0Xe&quot; style=&quot;margin: 0px 0px 4px ; padding: 0px ; border: 0px ; list-style-type: disc&quot;&gt;&lt;font style=&quot;font-size: 9px&quot;&gt;Processor: Four 3.0 GHz CPU cores (or virtual equivalent)&lt;/font&gt;&lt;/li&gt;&lt;li class=&quot;TrT0Xe&quot; style=&quot;margin: 0px 0px 4px ; padding: 0px ; border: 0px ; list-style-type: disc&quot;&gt;&lt;font style=&quot;font-size: 9px&quot;&gt;Memory: 32 GB (&lt;b&gt;minimum&lt;/b&gt;&amp;nbsp;dependent on selected platform)&lt;/font&gt;&lt;/li&gt;&lt;li class=&quot;TrT0Xe&quot; style=&quot;margin: 0px 0px 4px ; padding: 0px ; border: 0px ; list-style-type: disc&quot;&gt;&lt;font style=&quot;font-size: 9px&quot;&gt;Disk: 200 GB VM root partition. 250 GB data partition (our recommendation, actual size depends on your data)&lt;/font&gt;&lt;/li&gt;&lt;li class=&quot;TrT0Xe&quot; style=&quot;margin: 0px 0px 4px ; padding: 0px ; border: 0px ; list-style-type: disc&quot;&gt;&lt;font style=&quot;font-size: 9px&quot;&gt;Storage: High-performance SAN or locally attached storage.&lt;/font&gt;&lt;/li&gt;&lt;/ul&gt;&lt;/div&gt;" style="text;html=1;strokeColor=none;fillColor=none;spacing=5;spacingTop=-20;whiteSpace=wrap;overflow=hidden;rounded=0;shadow=1;fontSize=12;" parent="UrYe-P0nPYFkCGpH_gkC-1" vertex="1">
          <mxGeometry x="896" y="384" width="291" height="92" as="geometry" />
        </mxCell>
      </root>
    </mxGraphModel>
  </diagram>
  <diagram id="vd3G8jqhW6U-2FQNdNDc" name="Page-2">
    <mxGraphModel dx="868" dy="433" grid="1" gridSize="10" guides="1" tooltips="1" connect="1" arrows="1" fold="1" page="1" pageScale="1" pageWidth="850" pageHeight="1100" math="0" shadow="0">
      <root>
        <mxCell id="sHfptbkwQaP3mGKot8aD-0" />
        <mxCell id="sHfptbkwQaP3mGKot8aD-1" parent="sHfptbkwQaP3mGKot8aD-0" />
      </root>
    </mxGraphModel>
  </diagram>
  <diagram id="Z-lrw0h01Kx0_ROrUA1p" name="Page-4">
    <mxGraphModel dx="857" dy="433" grid="1" gridSize="10" guides="1" tooltips="1" connect="1" arrows="1" fold="1" page="1" pageScale="1" pageWidth="850" pageHeight="1100" math="0" shadow="0">
      <root>
        <mxCell id="TlYxrf8N4SBE-6B2Cq7i-0" />
        <mxCell id="TlYxrf8N4SBE-6B2Cq7i-1" parent="TlYxrf8N4SBE-6B2Cq7i-0" />
      </root>
    </mxGraphModel>
  </diagram>
</mxfile>
